<svg width="22.000000" height="12.000000" viewBox="0 0 22 12" fill="none" xmlns="http://www.w3.org/2000/svg" xmlns:xlink="http://www.w3.org/1999/xlink">
	<desc>
			Created with Pixso.
	</desc>
	<defs/>
	<path id="path" d="M0.16 5.51C0.66 4.99 1.18 4.52 1.72 4.09C4.17 2.16 7.08 1.13 10.08 1.08C11.2 1.06 12.33 1.18 13.46 1.44L12.45 2.31C11.66 2.17 10.88 2.11 10.1 2.13C7.4 2.17 4.77 3.11 2.54 4.87C2.14 5.18 1.76 5.51 1.39 5.88C2.09 6.57 2.86 7.18 3.69 7.68C4.2 7.99 4.73 8.27 5.28 8.51L4.38 9.29C3.91 9.06 3.44 8.82 2.99 8.54C1.95 7.9 0.98 7.12 0.13 6.2C-0.06 5.99 -0.04 5.7 0.16 5.51ZM16.41 0L17.41 0.87L4.8 11.78L3.79 10.91L16.41 0ZM16.7 2.6C17.45 2.97 18.19 3.42 18.92 3.93C19.58 4.4 20.22 4.93 20.84 5.52C21.04 5.71 21.05 5.99 20.88 6.18C20.17 7.05 19.36 7.78 18.47 8.4C16.25 9.93 13.55 10.68 10.82 10.69C9.78 10.7 9.15 10.23 8.12 10.02L8.72 9.49C9.42 9.6 10.12 9.65 10.82 9.65C13.28 9.64 15.71 8.96 17.72 7.57C18.4 7.1 19.03 6.55 19.6 5.91C19.12 5.48 18.64 5.09 18.15 4.74C17.39 4.2 16.6 3.74 15.8 3.37L16.7 2.6ZM10.5 2.68C10.95 2.68 11.39 2.75 11.79 2.88L10.82 3.72C10.71 3.71 10.6 3.7 10.5 3.7C9.8 3.7 9.17 3.95 8.71 4.34C8.25 4.74 7.97 5.28 7.97 5.89C7.97 5.98 7.98 6.07 7.99 6.16L7.02 7.01C6.87 6.66 6.79 6.28 6.79 5.89C6.79 5 7.2 4.2 7.87 3.62C8.54 3.04 9.47 2.68 10.5 2.68ZM14.03 4.91C14.14 5.21 14.2 5.54 14.2 5.89C14.2 6.77 13.79 7.57 13.12 8.16C12.45 8.73 11.52 9.09 10.5 9.09C10.1 9.09 9.72 9.04 9.36 8.94L10.37 8.07C10.41 8.07 10.45 8.07 10.5 8.07C11.19 8.07 11.82 7.83 12.28 7.43C12.74 7.04 13.02 6.49 13.02 5.89C13.02 5.85 13.02 5.82 13.02 5.78L14.03 4.91Z" fill="#A4A4A6" fill-opacity="1.000000" fill-rule="nonzero"/>
</svg>
