<svg width="21.000000" height="10.000000" viewBox="0 0 21 10" fill="none" xmlns="http://www.w3.org/2000/svg" xmlns:xlink="http://www.w3.org/1999/xlink">
	<desc>
			Created with Pixso.
	</desc>
	<defs/>
	<path id="path" d="M0.16 4.29C0.66 3.78 1.18 3.32 1.72 2.91C4.17 1.04 7.08 0.05 10.08 0C13.07 -0.05 16.14 0.84 18.92 2.76C19.58 3.21 20.22 3.72 20.84 4.29C21.04 4.48 21.05 4.75 20.88 4.94C20.17 5.77 19.36 6.49 18.47 7.08C16.25 8.56 13.56 9.29 10.82 9.3C8.1 9.31 5.34 8.61 3 7.22C1.95 6.6 0.98 5.84 0.13 4.95C-0.06 4.75 -0.04 4.47 0.16 4.29ZM10.5 1.54C11.52 1.54 12.45 1.89 13.12 2.45C13.79 3.02 14.21 3.79 14.21 4.65C14.21 5.51 13.79 6.28 13.12 6.84C12.45 7.41 11.52 7.75 10.5 7.75C9.47 7.75 8.54 7.41 7.87 6.84C7.2 6.28 6.79 5.51 6.79 4.65C6.79 3.79 7.2 3.02 7.87 2.45C8.54 1.89 9.47 1.54 10.5 1.54ZM12.28 3.15C11.83 2.77 11.19 2.53 10.5 2.53C9.8 2.53 9.17 2.77 8.71 3.15C8.25 3.54 7.97 4.07 7.97 4.65C7.97 5.23 8.25 5.76 8.71 6.14C9.17 6.53 9.8 6.76 10.5 6.76C11.19 6.76 11.83 6.53 12.28 6.14C12.74 5.76 13.02 5.23 13.02 4.65C13.02 4.07 12.74 3.54 12.28 3.15ZM2.54 3.66C2.14 3.96 1.76 4.29 1.39 4.64C2.09 5.31 2.87 5.9 3.69 6.39C5.84 7.65 8.34 8.3 10.82 8.29C13.28 8.28 15.72 7.62 17.72 6.28C18.4 5.83 19.03 5.29 19.6 4.67C19.13 4.26 18.64 3.88 18.15 3.54C15.6 1.78 12.81 0.97 10.1 1.01C7.4 1.06 4.77 1.96 2.54 3.66Z" fill="#A4A4A6" fill-opacity="1.000000" fill-rule="nonzero"/>
</svg>
